<svg width="221" height="58" viewBox="0 0 221 58" fill="none" xmlns="http://www.w3.org/2000/svg">
<path fill-rule="evenodd" clip-rule="evenodd" d="M4.72592 15.8667C71.6545 7.23297 76.3527 -14.7934 151.127 15.3965C151.127 15.3965 196.531 14.7663 215.923 31.319C164.686 4.9946 118.627 47.9187 4.72592 15.8667ZM139.838 16.9295C120.99 9.50896 108.04 4.76888 93.521 3.90363C75.7066 2.85028 57.2645 8.33335 40.4285 12.7819C48.182 29.8988 123.833 17.9828 139.838 16.9295Z" fill="#FF603D"/>
<path fill-rule="evenodd" clip-rule="evenodd" d="M1.95681 16.4216C3.37827 17.7195 4.91051 18.7917 4.99358 20.3529C3.29522 23.1367 4.79974 26.1745 4.79974 26.1745C5.36278 20.4846 8.15033 23.5412 13.2085 24.0866C3.85826 27.1244 0.19384 34.4697 3.8147e-06 40.7428C4.25515 26.7576 25.9739 25.8736 40.3916 25.5162C40.3916 25.5162 12.8577 21.4251 1.95681 16.4216Z" fill="#FD8D14"/>
<path fill-rule="evenodd" clip-rule="evenodd" d="M221 45.3886C220.492 41.542 218.462 36.294 212.924 32.6167C214.087 33.6701 216.357 36.9618 216.496 38.5888C205.253 31.0273 201.589 29.9739 196.475 28.2528C197.795 27.9331 200.61 27.7167 203.915 28.1682C201.469 27.2465 185.14 23.4845 169.744 23.9642C169.744 23.9736 199.124 26.0521 221 45.3886Z" fill="#FD8D14"/>
<path d="M25.096 53.022C23.688 53.022 22.522 52.9267 21.598 52.736C20.6887 52.5453 19.9627 52.208 19.42 51.724C18.892 51.24 18.518 50.5873 18.298 49.766C18.078 48.93 17.968 47.8813 17.968 46.62V44.684C17.968 43.188 18.078 41.9853 18.298 41.076C18.5327 40.1667 18.9213 39.47 19.464 38.986C20.0213 38.4873 20.762 38.1573 21.686 37.996C22.6247 37.82 23.8053 37.732 25.228 37.732H28.484C29.98 37.732 31.212 37.8053 32.18 37.952C33.148 38.084 33.9107 38.3407 34.468 38.722C35.0253 39.1033 35.414 39.6313 35.634 40.306C35.854 40.9807 35.964 41.8533 35.964 42.924H32.18C32.18 42.6307 32.136 42.374 32.048 42.154C31.9747 41.9193 31.806 41.7287 31.542 41.582C31.278 41.4207 30.8893 41.3033 30.376 41.23C29.8627 41.1567 29.1733 41.12 28.308 41.12H25.492C24.6707 41.12 24.0033 41.1567 23.49 41.23C22.9913 41.2887 22.6027 41.4353 22.324 41.67C22.06 41.9047 21.884 42.2567 21.796 42.726C21.708 43.1953 21.664 43.8333 21.664 44.64V46.312C21.664 47.06 21.708 47.654 21.796 48.094C21.884 48.534 22.06 48.8787 22.324 49.128C22.588 49.3627 22.962 49.5167 23.446 49.59C23.93 49.6633 24.568 49.7 25.36 49.7H28.352C29.1587 49.7 29.8113 49.678 30.31 49.634C30.8233 49.59 31.2193 49.4947 31.498 49.348C31.7767 49.2013 31.96 48.996 32.048 48.732C32.1507 48.468 32.202 48.1233 32.202 47.698H35.986C35.986 48.71 35.898 49.5607 35.722 50.25C35.5607 50.9247 35.2087 51.4673 34.666 51.878C34.138 52.2887 33.3753 52.582 32.378 52.758C31.3807 52.934 30.068 53.022 28.44 53.022H25.096ZM50.6872 37.732H56.4732L64.3492 53H60.0592L58.2112 49.326H48.9492L47.0792 53H42.8112L50.6872 37.732ZM53.7232 40.592H53.5472L50.5332 46.268H56.6272L53.7232 40.592ZM89.2179 49.832V53H85.5439V50.624C85.5439 49.876 85.3386 49.326 84.9279 48.974C84.5319 48.622 83.9086 48.446 83.0579 48.446H75.8419V53H72.1679V37.732H83.4979C84.4806 37.732 85.3239 37.82 86.0279 37.996C86.7319 38.172 87.3113 38.458 87.7659 38.854C88.2206 39.2353 88.5506 39.7413 88.7559 40.372C88.9613 40.988 89.0639 41.736 89.0639 42.616V43.672C89.0639 44.5373 88.9833 45.2193 88.8219 45.718C88.6606 46.2167 88.3379 46.62 87.8539 46.928C88.2793 47.0893 88.6093 47.39 88.8439 47.83C89.0933 48.2553 89.2179 48.9227 89.2179 49.832ZM85.4119 43.276V42.968C85.4119 42.3667 85.2799 41.956 85.0159 41.736C84.7519 41.5013 84.2753 41.384 83.5859 41.384H75.7759V44.816H83.6739C84.3193 44.816 84.7666 44.706 85.0159 44.486C85.2799 44.2513 85.4119 43.848 85.4119 43.276ZM98.3407 37.732H102.015V49.92H111.409V53H98.3407V37.732ZM121.025 53V37.732H124.677V53H121.025ZM139.31 37.732H146.02C147.942 37.732 149.364 38.084 150.288 38.788C151.212 39.492 151.674 40.5773 151.674 42.044H147.736C147.736 41.8093 147.707 41.6113 147.648 41.45C147.604 41.2887 147.509 41.1567 147.362 41.054C147.23 40.9513 147.04 40.878 146.79 40.834C146.556 40.79 146.248 40.768 145.866 40.768H139.728C139.215 40.768 138.79 40.8633 138.452 41.054C138.115 41.23 137.946 41.6113 137.946 42.198C137.946 42.506 137.99 42.748 138.078 42.924C138.166 43.0853 138.284 43.21 138.43 43.298C138.592 43.3713 138.782 43.4227 139.002 43.452C139.222 43.4667 139.464 43.4813 139.728 43.496L146.482 43.76C147.348 43.7893 148.103 43.8627 148.748 43.98C149.408 44.0827 149.951 44.2953 150.376 44.618C150.816 44.926 151.146 45.3733 151.366 45.96C151.586 46.5467 151.696 47.346 151.696 48.358C151.696 49.1793 151.608 49.8833 151.432 50.47C151.256 51.042 150.963 51.5187 150.552 51.9C150.156 52.2813 149.628 52.56 148.968 52.736C148.308 52.912 147.502 53 146.548 53H138.98C138.012 53 137.198 52.912 136.538 52.736C135.878 52.56 135.343 52.296 134.932 51.944C134.536 51.5773 134.25 51.1227 134.074 50.58C133.913 50.0373 133.832 49.3993 133.832 48.666H137.572C137.572 49.0473 137.741 49.3553 138.078 49.59C138.416 49.8247 138.841 49.942 139.354 49.942H145.47C146.277 49.942 146.878 49.8393 147.274 49.634C147.67 49.4287 147.868 49.018 147.868 48.402C147.868 48.1233 147.832 47.8887 147.758 47.698C147.685 47.4927 147.553 47.324 147.362 47.192C147.186 47.0453 146.93 46.9353 146.592 46.862C146.27 46.7887 145.844 46.7373 145.316 46.708L139.464 46.466C138.423 46.422 137.543 46.3487 136.824 46.246C136.12 46.1433 135.541 45.9527 135.086 45.674C134.632 45.3807 134.302 44.9627 134.096 44.42C133.906 43.8627 133.81 43.1073 133.81 42.154C133.81 41.3473 133.913 40.6653 134.118 40.108C134.324 39.536 134.646 39.074 135.086 38.722C135.526 38.37 136.091 38.1207 136.78 37.974C137.484 37.8127 138.328 37.732 139.31 37.732ZM176.346 37.732V40.834H169.922V53H166.27V40.834H159.846V37.732H176.346ZM194.734 41.12H192.028C191.163 41.12 190.466 41.1713 189.938 41.274C189.425 41.362 189.029 41.538 188.75 41.802C188.486 42.066 188.31 42.4327 188.222 42.902C188.134 43.3713 188.09 43.9873 188.09 44.75V46.334C188.09 47.0233 188.134 47.5807 188.222 48.006C188.31 48.4313 188.486 48.7687 188.75 49.018C189.014 49.2527 189.395 49.414 189.894 49.502C190.393 49.59 191.06 49.634 191.896 49.634H194.8C195.695 49.634 196.413 49.5973 196.956 49.524C197.499 49.4507 197.917 49.2967 198.21 49.062C198.503 48.8127 198.694 48.468 198.782 48.028C198.885 47.588 198.936 47.0013 198.936 46.268V44.684C198.936 43.9213 198.885 43.3053 198.782 42.836C198.694 42.3667 198.503 42.0073 198.21 41.758C197.917 41.494 197.491 41.3253 196.934 41.252C196.391 41.164 195.658 41.12 194.734 41.12ZM194.866 53H191.632C190.165 53 188.963 52.912 188.024 52.736C187.085 52.56 186.345 52.23 185.802 51.746C185.274 51.262 184.907 50.602 184.702 49.766C184.497 48.93 184.394 47.852 184.394 46.532V44.684C184.394 43.2613 184.489 42.0953 184.68 41.186C184.885 40.2767 185.252 39.5653 185.78 39.052C186.323 38.524 187.071 38.1647 188.024 37.974C188.977 37.7687 190.202 37.666 191.698 37.666H194.932C196.501 37.666 197.785 37.7687 198.782 37.974C199.779 38.1793 200.557 38.546 201.114 39.074C201.686 39.5873 202.075 40.2987 202.28 41.208C202.5 42.1027 202.61 43.2393 202.61 44.618V46.466C202.61 47.874 202.5 49.0107 202.28 49.876C202.075 50.7267 201.686 51.3867 201.114 51.856C200.542 52.3107 199.75 52.6187 198.738 52.78C197.741 52.9267 196.45 53 194.866 53Z" fill="#0D274E"/>
</svg>
