<svg width="171" height="47" viewBox="0 0 171 47" fill="none" xmlns="http://www.w3.org/2000/svg">
<path fill-rule="evenodd" clip-rule="evenodd" d="M3.6389 12.0063C55.1722 5.47319 58.7898 -11.1941 116.364 11.6505C116.364 11.6505 151.324 11.1737 166.256 23.6991C126.804 3.77941 91.3401 36.2601 3.6389 12.0063ZM107.672 12.8105C93.1595 7.19543 83.1883 3.60861 72.0089 2.95388C58.2923 2.1568 44.0923 6.30585 31.129 9.67205C37.099 22.6245 95.3485 13.6076 107.672 12.8105Z" fill="#FF603D"/>
<path fill-rule="evenodd" clip-rule="evenodd" d="M1.50668 12.426C2.60117 13.4081 3.78095 14.2194 3.84492 15.4008C2.53722 17.5074 3.69566 19.8061 3.69566 19.8061C4.12919 15.5004 6.27553 17.8134 10.1702 18.2261C2.97075 20.5248 0.149235 26.083 -1.33514e-05 30.8298C3.27634 20.2473 19.9993 19.5783 31.1005 19.3079C31.1005 19.3079 9.90013 16.2121 1.50668 12.426Z" fill="#FD8D14"/>
<path fill-rule="evenodd" clip-rule="evenodd" d="M170.165 34.3457C169.774 31.435 168.21 27.4639 163.946 24.6812C164.841 25.4783 166.59 27.9692 166.696 29.2004C158.04 23.4785 155.218 22.6815 151.281 21.3791C152.297 21.1371 154.465 20.9734 157.009 21.315C155.126 20.6176 142.554 17.7709 130.699 18.1339C130.699 18.141 153.321 19.7138 170.165 34.3457Z" fill="#FD8D14"/>
<path d="M13.624 42.018C12.472 42.018 11.518 41.94 10.762 41.784C10.018 41.628 9.424 41.352 8.98 40.956C8.548 40.56 8.242 40.026 8.062 39.354C7.882 38.67 7.792 37.812 7.792 36.78V35.196C7.792 33.972 7.882 32.988 8.062 32.244C8.254 31.5 8.572 30.93 9.016 30.534C9.472 30.126 10.078 29.856 10.834 29.724C11.602 29.58 12.568 29.508 13.732 29.508H16.396C17.62 29.508 18.628 29.568 19.42 29.688C20.212 29.796 20.836 30.006 21.292 30.318C21.748 30.63 22.066 31.062 22.246 31.614C22.426 32.166 22.516 32.88 22.516 33.756H19.42C19.42 33.516 19.384 33.306 19.312 33.126C19.252 32.934 19.114 32.778 18.898 32.658C18.682 32.526 18.364 32.43 17.944 32.37C17.524 32.31 16.96 32.28 16.252 32.28H13.948C13.276 32.28 12.73 32.31 12.31 32.37C11.902 32.418 11.584 32.538 11.356 32.73C11.14 32.922 10.996 33.21 10.924 33.594C10.852 33.978 10.816 34.5 10.816 35.16V36.528C10.816 37.14 10.852 37.626 10.924 37.986C10.996 38.346 11.14 38.628 11.356 38.832C11.572 39.024 11.878 39.15 12.274 39.21C12.67 39.27 13.192 39.3 13.84 39.3H16.288C16.948 39.3 17.482 39.282 17.89 39.246C18.31 39.21 18.634 39.132 18.862 39.012C19.09 38.892 19.24 38.724 19.312 38.508C19.396 38.292 19.438 38.01 19.438 37.662H22.534C22.534 38.49 22.462 39.186 22.318 39.75C22.186 40.302 21.898 40.746 21.454 41.082C21.022 41.418 20.398 41.658 19.582 41.802C18.766 41.946 17.692 42.018 16.36 42.018H13.624ZM34.5622 29.508H39.2962L45.7402 42H42.2302L40.7182 38.994H33.1402L31.6102 42H28.1182L34.5622 29.508ZM37.0462 31.848H36.9022L34.4362 36.492H39.4222L37.0462 31.848ZM66.0874 39.408V42H63.0814V40.056C63.0814 39.444 62.9134 38.994 62.5774 38.706C62.2534 38.418 61.7434 38.274 61.0474 38.274H55.1434V42H52.1374V29.508H61.4074C62.2114 29.508 62.9014 29.58 63.4774 29.724C64.0534 29.868 64.5274 30.102 64.8994 30.426C65.2714 30.738 65.5414 31.152 65.7094 31.668C65.8774 32.172 65.9614 32.784 65.9614 33.504V34.368C65.9614 35.076 65.8954 35.634 65.7634 36.042C65.6314 36.45 65.3674 36.78 64.9714 37.032C65.3194 37.164 65.5894 37.41 65.7814 37.77C65.9854 38.118 66.0874 38.664 66.0874 39.408ZM62.9734 34.044V33.792C62.9734 33.3 62.8654 32.964 62.6494 32.784C62.4334 32.592 62.0434 32.496 61.4794 32.496H55.0894V35.304H61.5514C62.0794 35.304 62.4454 35.214 62.6494 35.034C62.8654 34.842 62.9734 34.512 62.9734 34.044ZM73.5515 29.508H76.5575V39.48H84.2435V42H73.5515V29.508ZM92.1117 42V29.508H95.0997V42H92.1117ZM107.072 29.508H112.562C114.134 29.508 115.298 29.796 116.054 30.372C116.81 30.948 117.188 31.836 117.188 33.036H113.966C113.966 32.844 113.942 32.682 113.894 32.55C113.858 32.418 113.78 32.31 113.66 32.226C113.552 32.142 113.396 32.082 113.192 32.046C113 32.01 112.748 31.992 112.436 31.992H107.414C106.994 31.992 106.646 32.07 106.37 32.226C106.094 32.37 105.956 32.682 105.956 33.162C105.956 33.414 105.992 33.612 106.064 33.756C106.136 33.888 106.232 33.99 106.352 34.062C106.484 34.122 106.64 34.164 106.82 34.188C107 34.2 107.198 34.212 107.414 34.224L112.94 34.44C113.648 34.464 114.266 34.524 114.794 34.62C115.334 34.704 115.778 34.878 116.126 35.142C116.486 35.394 116.756 35.76 116.936 36.24C117.116 36.72 117.206 37.374 117.206 38.202C117.206 38.874 117.134 39.45 116.99 39.93C116.846 40.398 116.606 40.788 116.27 41.1C115.946 41.412 115.514 41.64 114.974 41.784C114.434 41.928 113.774 42 112.994 42H106.802C106.01 42 105.344 41.928 104.804 41.784C104.264 41.64 103.826 41.424 103.49 41.136C103.166 40.836 102.932 40.464 102.788 40.02C102.656 39.576 102.59 39.054 102.59 38.454H105.65C105.65 38.766 105.788 39.018 106.064 39.21C106.34 39.402 106.688 39.498 107.108 39.498H112.112C112.772 39.498 113.264 39.414 113.588 39.246C113.912 39.078 114.074 38.742 114.074 38.238C114.074 38.01 114.044 37.818 113.984 37.662C113.924 37.494 113.816 37.356 113.66 37.248C113.516 37.128 113.306 37.038 113.03 36.978C112.766 36.918 112.418 36.876 111.986 36.852L107.198 36.654C106.346 36.618 105.626 36.558 105.038 36.474C104.462 36.39 103.988 36.234 103.616 36.006C103.244 35.766 102.974 35.424 102.806 34.98C102.65 34.524 102.572 33.906 102.572 33.126C102.572 32.466 102.656 31.908 102.824 31.452C102.992 30.984 103.256 30.606 103.616 30.318C103.976 30.03 104.438 29.826 105.002 29.706C105.578 29.574 106.268 29.508 107.072 29.508ZM137.374 29.508V32.046H132.118V42H129.13V32.046H123.874V29.508H137.374ZM152.419 32.28H150.205C149.497 32.28 148.927 32.322 148.495 32.406C148.075 32.478 147.751 32.622 147.523 32.838C147.307 33.054 147.163 33.354 147.091 33.738C147.019 34.122 146.983 34.626 146.983 35.25V36.546C146.983 37.11 147.019 37.566 147.091 37.914C147.163 38.262 147.307 38.538 147.523 38.742C147.739 38.934 148.051 39.066 148.459 39.138C148.867 39.21 149.413 39.246 150.097 39.246H152.473C153.205 39.246 153.793 39.216 154.237 39.156C154.681 39.096 155.023 38.97 155.263 38.778C155.503 38.574 155.659 38.292 155.731 37.932C155.815 37.572 155.857 37.092 155.857 36.492V35.196C155.857 34.572 155.815 34.068 155.731 33.684C155.659 33.3 155.503 33.006 155.263 32.802C155.023 32.586 154.675 32.448 154.219 32.388C153.775 32.316 153.175 32.28 152.419 32.28ZM152.527 42H149.881C148.681 42 147.697 41.928 146.929 41.784C146.161 41.64 145.555 41.37 145.111 40.974C144.679 40.578 144.379 40.038 144.211 39.354C144.043 38.67 143.959 37.788 143.959 36.708V35.196C143.959 34.032 144.037 33.078 144.193 32.334C144.361 31.59 144.661 31.008 145.093 30.588C145.537 30.156 146.149 29.862 146.929 29.706C147.709 29.538 148.711 29.454 149.935 29.454H152.581C153.865 29.454 154.915 29.538 155.731 29.706C156.547 29.874 157.183 30.174 157.639 30.606C158.107 31.026 158.425 31.608 158.593 32.352C158.773 33.084 158.863 34.014 158.863 35.142V36.654C158.863 37.806 158.773 38.736 158.593 39.444C158.425 40.14 158.107 40.68 157.639 41.064C157.171 41.436 156.523 41.688 155.695 41.82C154.879 41.94 153.823 42 152.527 42Z" fill="white"/>
</svg>
